<svg viewBox="0 0 512 512" xmlns="http://www.w3.org/2000/svg" fill-rule="evenodd" clip-rule="evenodd" stroke-linejoin="round" stroke-miterlimit="2"><g fill-rule="nonzero"><path d="M229.185 25.557c36.471-4.267 73.969.11 108.387 12.99 31.065 11.62 59.701 29.91 83.034 53.514-19.957 19.788-39.729 39.759-59.66 59.573-12.848-12.6-27.82-23.096-44.297-30.383-21.89-9.812-46.236-14.129-70.161-12.475-27.031 1.74-53.524 11.133-75.565 26.881-27.348 19.284-47.83 48.132-56.835 80.376-6.753 23.656-7.311 48.997-1.86 72.974 4.38 19.611 12.915 38.266 24.778 54.474a148.325 148.325 0 0040.704 37.977c18.215 11.506 38.994 18.922 60.38 21.527 18.33 2.302 37.083 1.104 54.978-3.467 1.966-.945 3.091 1.294 4.323 2.406 20.17 20.275 40.437 40.448 60.613 60.712-36.294 17.625-77.227 25.675-117.482 22.834-33.69-2.233-66.872-11.92-96.397-28.308-12.313-6.734-23.879-14.764-34.818-23.537-8.644-7.332-17.185-14.857-24.616-23.442-12.58-13.56-23.372-28.768-32.264-44.989-1.98-3.82-4.278-7.484-5.89-11.484-2.215-4.482-4.146-9.09-6.067-13.699-2.456-6.571-5.078-13.09-6.87-19.878-.215-.896-.758-1.647-1.248-2.4-4.11-14.189-6.413-28.878-7.645-43.588-1.296-18.497-.659-37.156 2.366-55.464 6.03-37.367 21.493-73.141 44.488-103.193 14.912-19.555 32.938-36.74 53.201-50.67 30.914-21.344 67.098-34.998 104.423-39.26m24.347 24.99c-2.822.49-5.425 1.863-7.613 3.68-5.149 4.42-7.001 12.282-4.045 18.455 3.134 7.438 12.456 11.438 19.981 8.417 7.639-2.594 12.268-11.638 9.773-19.337-2.03-7.64-10.357-12.768-18.096-11.215m-132.66 55.445c-2.64.139-5.244.95-7.507 2.316-5.677 3.48-8.851 10.764-7.108 17.258 1.53 6.972 8.306 12.407 15.476 12.184 7.44.204 14.396-5.638 15.615-12.956 1.108-5.114-.798-10.667-4.526-14.282-3.089-3.134-7.574-4.764-11.95-4.52m-57.41 134.66a16.436 16.436 0 00-8.684 4.655c-4.678 4.81-5.801 12.66-2.486 18.525 3.545 6.91 12.617 10.327 19.793 7.238 7.438-2.727 11.879-11.594 9.438-19.164-2-7.63-10.328-12.853-18.06-11.253M118.9 375.34c-5.688.965-10.633 5.307-12.298 10.832-1.916 5.757-.064 12.456 4.407 16.516 3.044 2.712 7.13 4.306 11.224 4.118 5.525-.122 10.881-3.401 13.424-8.317 2.441-4.372 2.55-9.91.353-14.407-2.88-6.327-10.304-10.064-17.11-8.742m134.69 55.464c-5.822.999-10.85 5.48-12.42 11.187-1.917 6.223.56 13.492 5.897 17.224 3.89 2.867 9.118 3.797 13.747 2.407 4.758-1.372 8.762-5.07 10.43-9.744 2.463-6.306.18-14.02-5.236-18.05-3.476-2.699-8.096-3.798-12.417-3.024z" fill="#a0a0a0"/><g fill="#c1c1c1"><path d="M253.532 50.548c7.74-1.553 16.066 3.574 18.096 11.215 2.495 7.699-2.134 16.743-9.773 19.337-7.525 3.02-16.847-.98-19.981-8.417-2.956-6.173-1.104-14.034 4.045-18.456 2.188-1.816 4.791-3.19 7.613-3.679zM63.463 240.654c7.732-1.6 16.06 3.623 18.06 11.253 2.44 7.57-2 16.437-9.438 19.164-7.176 3.089-16.248-.327-19.793-7.238-3.315-5.866-2.192-13.714 2.486-18.525a16.436 16.436 0 018.685-4.654z"/></g><path d="M420.606 92.06l.054-.053c12.199 12.435 23.25 26.041 32.483 40.829 17.828 28.298 29.398 60.508 33.601 93.693 2.806 22.219 2.61 44.854-1.016 66.968-6.287 39.611-23.239 77.437-48.467 108.6-20.942 25.984-47.464 47.548-77.437 62.263l-.31-.129c-.5-.545-1.005-1.07-1.51-1.595-20.176-20.264-40.443-40.437-60.613-60.712-1.232-1.112-2.357-3.351-4.323-2.406-17.895 4.571-36.648 5.77-54.978 3.467-21.386-2.605-42.165-10.021-60.38-21.527a148.325 148.325 0 01-40.704-37.977c-11.863-16.208-20.398-34.863-24.779-54.474-5.45-23.977-4.892-49.318 1.861-72.974 9.006-32.244 29.487-61.092 56.835-80.376 22.041-15.748 48.534-25.14 75.565-26.881 23.925-1.654 48.27 2.663 70.161 12.475 16.478 7.287 31.449 17.784 44.296 30.383 19.932-19.814 39.704-39.785 59.661-59.573m-174.144 91.08c-10.509 1.411-20.738 5.088-29.645 10.862-11.427 7.153-20.674 17.615-26.685 29.66-7.217 14.456-9.228 31.292-6.188 47.115 1.946 9.83 5.957 19.25 11.664 27.483 3.925 5.703 8.738 10.723 13.69 15.536 28.381 28.422 56.739 56.865 85.148 85.257 24.302-6.47 46.87-19.28 64.88-36.835 22.332-21.455 37.457-50.219 42.73-80.726.118-.516.11-1.442.916-1.288 14.67.02 29.337-.004 44.011.026 9.427-.15 18.255-7.314 20.18-16.565a2.21 2.21 0 00-.332-1.66c.604-2.826 1.03-5.733.683-8.63l-.118.2c-1.016-10.071-10.317-18.38-20.422-18.403-39.923-.034-79.847-.004-119.775-.034-3.187-10.933-9.157-20.956-16.847-29.324-12.772-13.616-30.824-22.283-49.517-23.18-4.792.011-9.624-.267-14.373.505m141.776 192.245c-6.257 1.018-11.57 6.231-12.723 12.464-.734 4.03-.069 8.428 2.342 11.808 2.851 4.556 8.316 7.307 13.668 7.055 4.12.015 8.06-1.955 10.972-4.781 2.41-2.772 4.182-6.274 4.29-10.002.426-5.628-2.504-11.436-7.36-14.336-3.228-2.208-7.371-2.848-11.19-2.208z" fill="#686868"/><path d="M120.871 105.993c4.377-.244 8.862 1.386 11.951 4.52 3.728 3.615 5.634 9.168 4.526 14.282-1.219 7.318-8.175 13.16-15.615 12.956-7.17.223-13.947-5.212-15.476-12.184-1.743-6.494 1.431-13.777 7.108-17.258a16.257 16.257 0 017.506-2.316z" fill="#c3c3c3"/><path d="M246.462 183.14c4.749-.772 9.581-.494 14.373-.504 18.693.896 36.745 9.563 49.517 23.179 7.69 8.368 13.66 18.391 16.847 29.324-23.6-.006-47.205-.006-70.81-.006-6.036-.054-11.995 2.684-15.946 7.234-2.976 3.39-4.824 7.748-5.17 12.248-.588 7.014 2.654 14.208 8.263 18.456 3.773 2.926 8.556 4.456 13.329 4.357 62.721-.019 125.447-.03 188.17.015 2.354.02 4.746-.074 7.028-.733 7.036-1.891 12.882-7.658 14.768-14.704.332.511.441 1.06.332 1.66-1.925 9.251-10.753 16.415-20.18 16.565-14.674-.03-29.342-.007-44.011-.026-.807-.154-.798.772-.916 1.288-5.273 30.507-20.398 59.271-42.73 80.726-18.01 17.555-40.578 30.364-64.88 36.835-28.41-28.392-56.767-56.835-85.148-85.257-4.952-4.813-9.765-9.833-13.69-15.536-5.707-8.233-9.718-17.654-11.664-27.483-3.04-15.823-1.03-32.66 6.188-47.115 6.01-12.045 15.258-22.507 26.685-29.66 8.907-5.774 19.136-9.45 29.645-10.863z" fill="#474747"/><g fill="#bfbfbf"><path d="M240.443 242.367c3.95-4.55 9.91-7.288 15.947-7.234 23.604 0 47.209 0 70.81.006 39.927.03 79.85 0 119.774.034 10.105.024 19.406 8.332 20.422 18.403-.094.162-.287.479-.387.637-1.82-9.164-10.678-16.415-20.035-16.362-61.87.05-123.74.06-185.609.084-3.827.064-7.792-.396-11.461.97-4.486 1.406-8.282 4.506-11.027 8.268-1.653 2.253-2.173 5.07-3.604 7.442.346-4.5 2.194-8.858 5.17-12.248zM118.901 375.34c6.806-1.322 14.23 2.415 17.11 8.742 2.197 4.497 2.088 10.035-.353 14.407-2.543 4.916-7.9 8.195-13.424 8.317-4.095.188-8.18-1.406-11.224-4.118-4.47-4.06-6.323-10.76-4.407-16.516 1.665-5.525 6.61-9.867 12.298-10.832z"/></g><path d="M249.904 238.906c3.669-1.367 7.634-.907 11.461-.971 61.868-.024 123.739-.034 185.61-.084 9.356-.053 18.214 7.198 20.034 16.362.1-.158.293-.475.387-.637l.118-.2c.346 2.897-.08 5.804-.683 8.63-1.886 7.046-7.732 12.813-14.768 14.704-2.282.659-4.674.753-7.029.733-62.722-.044-125.448-.034-188.17-.015-4.772.099-9.555-1.43-13.328-4.357-5.609-4.248-8.851-11.442-8.263-18.456 1.43-2.372 1.95-5.19 3.604-7.442 2.745-3.762 6.541-6.862 11.027-8.267z" fill="#b0b0b0"/><path d="M32.352 317.733c.49.753 1.033 1.504 1.247 2.4 1.793 6.787 4.415 13.307 6.87 19.878 1.922 4.61 3.853 9.217 6.067 13.699 1.613 4 3.91 7.664 5.891 11.484 8.892 16.221 19.684 31.43 32.264 44.99 7.431 8.584 15.972 16.109 24.616 23.441 10.94 8.773 22.505 16.803 34.818 23.537 29.525 16.387 62.707 26.075 96.397 28.308 40.255 2.84 81.188-5.209 117.482-22.834.505.526 1.01 1.05 1.51 1.595l.015.302c-20.952 10.41-43.508 17.59-66.619 21.243-28.174 4.406-57.16 3.71-85.064-2.227-33.61-7.106-65.559-21.887-92.787-42.83-31.446-24.076-56.597-56.305-72.213-92.712-4.167-9.838-7.886-19.913-10.494-30.274z" fill="#939393"/><path d="M388.238 375.385c3.818-.64 7.961 0 11.19 2.208 4.855 2.9 7.785 8.708 7.36 14.336-.11 3.728-1.88 7.23-4.291 10.002-2.912 2.826-6.852 4.796-10.972 4.78-5.352.253-10.817-2.498-13.668-7.054-2.41-3.38-3.076-7.778-2.342-11.808 1.152-6.233 6.466-11.446 12.723-12.464z" fill="#767676"/><path d="M253.592 430.804c4.32-.774 8.941.325 12.417 3.025 5.416 4.03 7.699 11.743 5.237 18.05-1.669 4.673-5.673 8.371-10.43 9.743-4.63 1.39-9.857.46-13.748-2.407-5.337-3.732-7.814-11.001-5.898-17.224 1.57-5.707 6.6-10.188 12.422-11.187z" fill="#bebebe"/></g></svg>