<svg xmlns="http://www.w3.org/2000/svg" viewBox="0 0 382.78 188.61">
  <defs>
    <style>
      .cls-1 {
        font-size: 48px;
        font-family: TimesNewRomanPSMT, Times New Roman;
      }

      .cls-1,
      .cls-3 {
        fill: #f90;
      }

      .cls-2 {
        fill: #2a9d8f;
      }
    </style>
  </defs>
  <title>Asset 7</title>
  <g id="Layer_2" data-name="Layer 2">
    <g id="Layer_3" data-name="Layer 3">
      <text class="cls-1" transform="translate(2.16 39.89)">Bringing</text>
      <g id="creativ_ty">
        <path class="cls-2" d="M38.38,101.47a32.58,32.58,0,0,1-14,2.83C9.59,104.3,0,94.3,0,79.36s10.3-26,26.26-26a29.74,29.74,0,0,1,12.32,2.52l-2,6.87a20.62,20.62,0,0,0-10.3-2.32C15.05,60.47,9,68.75,9,79c0,11.31,7.27,18.28,17,18.28a25.21,25.21,0,0,0,10.9-2.42Z" />
        <path class="cls-2" d="M48.78,69.66c0-5.76-.1-10.71-.4-15.25h7.78l.3,9.59h.4c2.22-6.56,7.58-10.7,13.54-10.7a9.68,9.68,0,0,1,2.52.3V62a13.5,13.5,0,0,0-3-.3c-6.26,0-10.7,4.75-11.92,11.41a25.39,25.39,0,0,0-.4,4.14v26.06H48.78Z" />
        <path class="cls-2" d="M85.75,80.47c.2,12,7.88,17,16.76,17a32.21,32.21,0,0,0,13.54-2.52l1.51,6.36c-3.13,1.42-8.48,3-16.26,3-15,0-24-9.9-24-24.64S86,53.3,100.19,53.3c16,0,20.2,14,20.2,23a34,34,0,0,1-.3,4.14Zm26.06-6.37c.1-5.65-2.33-14.44-12.33-14.44-9,0-12.92,8.28-13.63,14.44Z" />
        <path class="cls-2" d="M158.47,103.29l-.71-6.16h-.3a18.21,18.21,0,0,1-15,7.27c-9.9,0-14.95-7-14.95-14,0-11.81,10.51-18.28,29.39-18.18v-1c0-4-1.11-11.31-11.11-11.31a24.36,24.36,0,0,0-12.72,3.64l-2-5.86a30.4,30.4,0,0,1,16.06-4.34c14.94,0,18.58,10.2,18.58,20V91.58a68.33,68.33,0,0,0,.81,11.71Zm-1.32-24.94c-9.69-.21-20.7,1.51-20.7,11,0,5.76,3.84,8.49,8.38,8.49a12.16,12.16,0,0,0,11.82-8.18,9.37,9.37,0,0,0,.5-2.83Z" />
        <path class="cls-2" d="M190.38,40.37v14h12.73v6.77H190.38V87.54c0,6.06,1.72,9.49,6.67,9.49a19.44,19.44,0,0,0,5.15-.61l.4,6.67a21.64,21.64,0,0,1-7.87,1.21c-4.14,0-7.48-1.31-9.6-3.74-2.52-2.62-3.43-7-3.43-12.72V61.18h-7.58V54.41h7.58V42.69Z" />
        <path class="cls-2" d="M223,40.67c.1,3-2.12,5.46-5.66,5.46A5.29,5.29,0,0,1,212,40.67a5.41,5.41,0,0,1,5.55-5.55A5.27,5.27,0,0,1,223,40.67Zm-9.9,62.62V54.41H222v48.88Z" />
        <path class="cls-2" d="M240.18,54.41l9.59,27.47a124.31,124.31,0,0,1,3.94,12.52h.3c1.11-4,2.53-8.08,4.14-12.52l9.5-27.47h9.29l-19.19,48.88h-8.48L230.68,54.41Z" />
        <path class="cls-2" d="M319.66,40.37v14h12.73v6.77H319.66V87.54c0,6.06,1.72,9.49,6.67,9.49a19.44,19.44,0,0,0,5.15-.61l.4,6.67A21.7,21.7,0,0,1,324,104.3c-4.14,0-7.47-1.31-9.59-3.74-2.53-2.62-3.44-7-3.44-12.72V61.18H303.4V54.41H311V42.69Z" />
        <path class="cls-2" d="M346.52,54.41l10.71,28.88c1.11,3.24,2.32,7.07,3.13,10h.2c.91-2.93,1.92-6.66,3.13-10.2l9.7-28.68h9.39L369.45,89.25c-6.36,16.77-10.7,25.35-16.76,30.61a24.14,24.14,0,0,1-10.91,5.75l-2.22-7.47a23.52,23.52,0,0,0,7.77-4.34,27,27,0,0,0,7.48-9.9,6.46,6.46,0,0,0,.7-2.12,7.8,7.8,0,0,0-.6-2.33l-18.08-45Z" />
      </g>
      <g id="b">
        <path class="cls-3" d="M289.77,35.12a5.41,5.41,0,0,0-5.56,5.55,5.28,5.28,0,0,0,5.35,5.45c3.54,0,5.76-2.42,5.66-5.45A5.27,5.27,0,0,0,289.77,35.12Z" />
        <path class="cls-3" d="M311.11,121.42c-7.87,0-13.53,3.53-16.66,9h-.2V99.7h0V54.41h-8.89v48.88h.14v55.5c0,4.34-.2,9.29-.4,12.62h7.67l.41-8.08h.3c3.64,6.47,9.29,9.19,16.36,9.19,10.91,0,21.92-8.68,21.92-26.16C331.82,131.52,323.23,121.42,311.11,121.42Zm-3.13,44a13.72,13.72,0,0,1-13.33-10.4,16.79,16.79,0,0,1-.4-3.23V143a17.66,17.66,0,0,1,.5-3.63c1.82-6.77,7.48-10.91,13.54-10.91,9.49,0,14.54,8.38,14.54,18.18C322.83,157.88,317.27,165.45,308,165.45Z" />
      </g>
      <g id="we">
        <path class="cls-2" d="M165.07,122.53l6.46,24.85c1.42,5.45,2.73,10.5,3.64,15.55h.3c1.11-5,2.73-10.2,4.34-15.45l8-24.95h7.48L202.84,147c1.82,5.86,3.23,11,4.35,16h.3a146.73,146.73,0,0,1,3.74-15.86l7-24.54H227l-15.75,48.89h-8.08l-7.48-23.34A161.58,161.58,0,0,1,191.33,132h-.2a146.69,146.69,0,0,1-4.45,16.16l-7.88,23.23h-8.08L156,122.53Z" />
        <path class="cls-2" d="M239.81,148.59c.2,12,7.88,17,16.76,17A32.07,32.07,0,0,0,270.11,163l1.51,6.37c-3.13,1.41-8.48,3-16.26,3-15.05,0-24-9.89-24-24.64s8.69-26.36,22.93-26.36c16,0,20.2,14,20.2,23a33.81,33.81,0,0,1-.3,4.14Zm26.06-6.36c.1-5.66-2.33-14.45-12.33-14.45-9,0-12.92,8.29-13.63,14.45Z" />
      </g>
      <g id="onThe">
        <text class="cls-1" transform="translate(71.16 173.89)">the</text>
        <text class="cls-1" transform="translate(72.16 134.89)">on </text>
      </g>
      <path id="boxxx" class="cls-2" d="M.15,125v40.38a9.27,9.27,0,0,0,9.27,9.27H40.87a9.27,9.27,0,0,0,9.28-9.27V125a9.28,9.28,0,0,0-9.28-9.28H9.42A9.28,9.28,0,0,0,.15,125Zm35.37,35.37H14.78a9.28,9.28,0,0,1-9.27-9.28V130.33a9.27,9.27,0,0,1,9.27-9.28H35.52a9.27,9.27,0,0,1,9.27,9.28v20.73A9.28,9.28,0,0,1,35.52,160.34Z" />
    </g>
  </g>
</svg>